<svg id="visual" viewBox="0 0 900 600" width="900" height="600" xmlns="http://www.w3.org/2000/svg" xmlns:xlink="http://www.w3.org/1999/xlink" version="1.1"><rect x="0" y="0" width="900" height="600" fill="#001a2f"></rect><path d="M555 600L570.7 585.7C586.3 571.3 617.7 542.7 613.8 514.2C610 485.7 571 457.3 555.5 428.8C540 400.3 548 371.7 551.8 343C555.7 314.3 555.3 285.7 566 257C576.7 228.3 598.3 199.7 608.3 171.2C618.3 142.7 616.7 114.3 603 85.8C589.3 57.3 563.7 28.7 550.8 14.3L538 0L900 0L900 14.3C900 28.7 900 57.3 900 85.8C900 114.3 900 142.7 900 171.2C900 199.7 900 228.3 900 257C900 285.7 900 314.3 900 343C900 371.7 900 400.3 900 428.8C900 457.3 900 485.7 900 514.2C900 542.7 900 571.3 900 585.7L900 600Z" fill="#fa7268"></path><path d="M623 600L633.8 585.7C644.7 571.3 666.3 542.7 664 514.2C661.7 485.7 635.3 457.3 631.7 428.8C628 400.3 647 371.7 644.8 343C642.7 314.3 619.3 285.7 622.7 257C626 228.3 656 199.7 670.7 171.2C685.3 142.7 684.7 114.3 675.2 85.8C665.7 57.3 647.3 28.7 638.2 14.3L629 0L900 0L900 14.3C900 28.7 900 57.3 900 85.8C900 114.3 900 142.7 900 171.2C900 199.7 900 228.3 900 257C900 285.7 900 314.3 900 343C900 371.7 900 400.3 900 428.8C900 457.3 900 485.7 900 514.2C900 542.7 900 571.3 900 585.7L900 600Z" fill="#ef5f67"></path><path d="M702 600L708.5 585.7C715 571.3 728 542.7 732.2 514.2C736.3 485.7 731.7 457.3 726 428.8C720.3 400.3 713.7 371.7 719.5 343C725.3 314.3 743.7 285.7 745.7 257C747.7 228.3 733.3 199.7 724 171.2C714.7 142.7 710.3 114.3 716.7 85.8C723 57.3 740 28.7 748.5 14.3L757 0L900 0L900 14.3C900 28.7 900 57.3 900 85.8C900 114.3 900 142.7 900 171.2C900 199.7 900 228.3 900 257C900 285.7 900 314.3 900 343C900 371.7 900 400.3 900 428.8C900 457.3 900 485.7 900 514.2C900 542.7 900 571.3 900 585.7L900 600Z" fill="#e34c67"></path><path d="M744 600L742.8 585.7C741.7 571.3 739.3 542.7 748.7 514.2C758 485.7 779 457.3 786.3 428.8C793.7 400.3 787.3 371.7 786.2 343C785 314.3 789 285.7 780.8 257C772.7 228.3 752.3 199.7 750.8 171.2C749.3 142.7 766.7 114.3 779 85.8C791.3 57.3 798.7 28.7 802.3 14.3L806 0L900 0L900 14.3C900 28.7 900 57.3 900 85.8C900 114.3 900 142.7 900 171.2C900 199.7 900 228.3 900 257C900 285.7 900 314.3 900 343C900 371.7 900 400.3 900 428.8C900 457.3 900 485.7 900 514.2C900 542.7 900 571.3 900 585.7L900 600Z" fill="#d53867"></path><path d="M812 600L820.5 585.7C829 571.3 846 542.7 853.5 514.2C861 485.7 859 457.3 854.8 428.8C850.7 400.3 844.3 371.7 839.2 343C834 314.3 830 285.7 824.7 257C819.3 228.3 812.7 199.7 811.8 171.2C811 142.7 816 114.3 818.3 85.8C820.7 57.3 820.3 28.7 820.2 14.3L820 0L900 0L900 14.3C900 28.7 900 57.3 900 85.8C900 114.3 900 142.7 900 171.2C900 199.7 900 228.3 900 257C900 285.7 900 314.3 900 343C900 371.7 900 400.3 900 428.8C900 457.3 900 485.7 900 514.2C900 542.7 900 571.3 900 585.7L900 600Z" fill="#c62368"></path></svg>