<svg id="visual" viewBox="0 0 900 600" width="900" height="600" xmlns="http://www.w3.org/2000/svg" xmlns:xlink="http://www.w3.org/1999/xlink" version="1.1"><rect x="0" y="0" width="900" height="600" fill="#140021"></rect><path d="M462 600L506 600L506 514L466 514L466 429L508 429L508 343L558 343L558 257L473 257L473 171L495 171L495 86L380 86L380 0L900 0L900 86L900 86L900 171L900 171L900 257L900 257L900 343L900 343L900 429L900 429L900 514L900 514L900 600L900 600Z" fill="#9900ff"></path><path d="M564 600L605 600L605 514L694 514L694 429L565 429L565 343L679 343L679 257L539 257L539 171L534 171L534 86L584 86L584 0L900 0L900 86L900 86L900 171L900 171L900 257L900 257L900 343L900 343L900 429L900 429L900 514L900 514L900 600L900 600Z" fill="#7700c6"></path><path d="M689 600L723 600L723 514L795 514L795 429L804 429L804 343L771 343L771 257L807 257L807 171L673 171L673 86L777 86L777 0L900 0L900 86L900 86L900 171L900 171L900 257L900 257L900 343L900 343L900 429L900 429L900 514L900 514L900 600L900 600Z" fill="#560090"></path></svg>